<?xml version="1.0" standalone="no"?>
<!DOCTYPE svg PUBLIC "-//W3C//DTD SVG 20010904//EN"
 "http://www.w3.org/TR/2001/REC-SVG-20010904/DTD/svg10.dtd">
<svg version="1.0" xmlns="http://www.w3.org/2000/svg"
 width="258.000000pt" height="99.000000pt" viewBox="0 0 258.000000 99.000000"
 preserveAspectRatio="xMidYMid meet">

<g transform="translate(0.000000,99.000000) scale(0.100000,-0.100000)"
fill="#000000" stroke="none">
<path d="M0 495 l0 -495 1290 0 1290 0 0 495 0 495 -1290 0 -1290 0 0 -495z
m558 24 c3 -26 2 -27 -41 -22 -58 7 -87 -19 -87 -77 0 -66 42 -94 104 -70 24
9 26 7 26 -19 0 -33 -14 -41 -73 -41 -51 0 -104 30 -118 68 -17 43 -6 119 22
148 33 35 55 44 114 41 46 -2 50 -4 53 -28z m102 -19 l0 -50 50 0 50 0 0 50
c0 49 1 50 30 50 l30 0 0 -130 0 -130 -30 0 c-30 0 -30 1 -30 55 l0 55 -50 0
-50 0 0 -55 c0 -54 0 -55 -30 -55 l-30 0 0 130 0 130 30 0 c29 0 30 -1 30 -50z
m380 30 c27 -27 26 -75 -4 -105 -22 -22 -22 -24 -6 -42 9 -10 27 -35 39 -55
l23 -38 -35 0 c-32 0 -39 5 -66 50 -17 28 -35 50 -41 50 -5 0 -10 -22 -10 -50
l0 -50 -35 0 -35 0 0 130 0 130 75 0 c62 0 79 -4 95 -20z m272 -19 c51 -57 33
-172 -32 -206 -69 -36 -158 -6 -180 60 -20 60 -7 115 35 154 35 31 41 33 93
29 47 -4 60 -10 84 -37z m184 -38 l49 -78 3 78 3 77 29 0 30 0 0 -130 0 -130
-32 0 c-30 1 -37 7 -83 82 l-50 82 -3 -82 -3 -82 -29 0 -30 0 0 130 0 130 34
0 c31 0 37 -6 82 -77z m344 62 c56 -29 78 -121 45 -185 -29 -56 -113 -77 -175
-45 -79 41 -80 187 -2 229 35 20 95 20 132 1z m248 -16 c3 -24 1 -25 -44 -25
-58 1 -68 -17 -24 -41 64 -36 80 -53 80 -88 0 -45 -38 -75 -94 -75 -69 0 -86
9 -86 42 0 25 3 29 18 23 35 -16 84 -18 92 -4 12 19 4 27 -47 51 -106 50 -70
151 52 145 46 -2 50 -4 53 -28z"/>
<path d="M940 470 c0 -43 2 -45 31 -30 23 13 25 55 3 64 -29 11 -34 6 -34 -34z"/>
<path d="M1180 480 c-42 -42 -15 -140 38 -140 30 0 57 37 57 80 0 68 -53 102
-95 60z"/>
<path d="M1737 482 c-24 -26 -23 -104 1 -125 45 -41 92 -7 92 65 0 69 -54 104
-93 60z"/>
</g>
</svg>
